<svg width="301" height="210" viewBox="0 0 301 210" fill="none" xmlns="http://www.w3.org/2000/svg">
<path d="M113.5 205C167.072 205 210.5 161.572 210.5 108C210.5 54.4284 167.072 11 113.5 11C59.9284 11 16.5 54.4284 16.5 108C16.5 161.572 59.9284 205 113.5 205Z" fill="#F2F2F2"/>
<path d="M128.778 122.344C107.369 155.205 113.235 197 113.235 197C113.235 197 153.813 185.517 175.222 152.656C196.631 119.795 190.765 78 190.765 78C190.765 78 150.187 89.4832 128.778 122.344Z" fill="#3F3D56"/>
<path d="M113.494 197C113.494 197 112.971 196.917 112.007 196.723C111.239 196.569 110.181 196.347 108.889 196.043C97.3421 193.338 66.6417 184.195 46.5701 160.156C21.4485 130.055 22.5064 88 22.5064 88C22.5064 88 60.9181 94.2006 86.2289 121.232C87.3257 122.394 88.3929 123.598 89.4303 124.844C111.289 151.035 113.327 186.275 113.488 194.987C113.511 196.292 113.494 197 113.494 197Z" fill="#222F65"/>
<path fill-rule="evenodd" clip-rule="evenodd" d="M98.2218 122.344C119.631 155.205 113.765 197 113.765 197C113.765 197 73.1875 185.517 51.7782 152.656C30.369 119.795 36.2351 78 36.2351 78C36.2351 78 76.8125 89.4832 98.2218 122.344Z" stroke="#3F3D56" stroke-width="2"/>
<path opacity="0.1" d="M113.5 194.69C112.926 195.369 112.42 195.95 112.004 196.425C111.082 197.458 110.559 198 110.559 198C110.559 198 109.924 197.215 108.855 195.745C102.99 187.71 84.1234 159.138 85.5799 126.134C85.6586 124.404 85.788 122.693 85.9679 121C87.0757 122.161 88.1535 123.363 89.2013 124.609C111.279 150.777 113.337 185.986 113.5 194.69Z" fill="black"/>
<path d="M145.421 129.199C143.715 168.411 114.411 199 114.411 199C114.411 199 87.8729 166.014 89.5789 126.801C91.2848 87.5893 120.589 57 120.589 57C120.589 57 147.127 89.9863 145.421 129.199Z" fill="#222F65"/>
<path d="M114.5 197L120.5 58" stroke="#3F3D56" stroke-width="2"/>
<path d="M150.5 210C233.343 210 300.5 205.747 300.5 200.5C300.5 195.253 233.343 191 150.5 191C67.6573 191 0.5 195.253 0.5 200.5C0.5 205.747 67.6573 210 150.5 210Z" fill="#3F3D56"/>
<path d="M26.1385 198V160V198Z" fill="#3F3D56"/>
<path d="M26.1385 198V160" stroke="#3F3D56" stroke-width="2"/>
<path d="M26.5 165C29.5376 165 32 162.538 32 159.5C32 156.462 29.5376 154 26.5 154C23.4624 154 21 156.462 21 159.5C21 162.538 23.4624 165 26.5 165Z" fill="#3F3D56"/>
<path d="M26 183C26 183 25.2558 166.206 10 168.158L26 183Z" fill="#3F3D56"/>
<path d="M155.139 136V31V136Z" fill="#3F3D56"/>
<path d="M155.139 136V31" stroke="#3F3D56" stroke-width="2"/>
<path d="M154.5 39C158.642 39 162 35.6421 162 31.5C162 27.3579 158.642 24 154.5 24C150.358 24 147 27.3579 147 31.5C147 35.6421 150.358 39 154.5 39Z" fill="#3F3D56"/>
<path d="M154 61C154 61 152.977 38.6077 132 41.2105L154 61Z" fill="#3F3D56"/>
<path d="M242.402 78L236.122 89.8957C236.122 89.8957 190.715 98.6353 196.511 112.23C202.308 125.825 208.829 145.732 212.211 145.247C215.592 144.761 234.19 134.08 234.915 130.924C235.639 127.768 218.249 112.959 218.249 112.959L246.991 107.375C246.991 107.375 251.097 126.797 245.784 140.149C240.47 153.501 237.33 189.674 240.953 190.159C244.576 190.645 253.754 193.558 257.86 190.887C261.966 188.217 263.899 129.71 263.899 129.71C263.899 129.71 272.594 91.3523 267.28 86.9824C261.966 82.6126 242.402 78 242.402 78Z" fill="#2F2E41"/>
<path d="M252.628 184.535C252.628 184.535 247.042 181.527 245.866 183.933C245.866 183.933 246.748 191.153 243.221 192.056C239.693 192.958 238.223 199.276 243.221 199.877C248.218 200.479 251.452 198.674 253.216 198.674C254.98 198.674 253.216 192.356 253.216 192.356L252.628 184.535Z" fill="#2F2E41"/>
<path d="M224.976 135.578C224.976 135.578 218.891 133.805 218.236 136.468C218.236 136.468 220.589 143.483 217.323 145.162C214.057 146.841 213.922 153.474 218.937 152.973C223.951 152.472 226.743 149.957 228.468 149.568C230.194 149.179 227.165 143.259 227.165 143.259L224.976 135.578Z" fill="#2F2E41"/>
<path d="M255.55 35.9439C255.55 35.9439 255.781 45.0763 254.167 45.8168C252.554 46.5572 263.156 51 263.156 51L265 47.5445C265 47.5445 262.926 35.2034 263.387 34.2162C263.848 33.2289 255.55 35.9439 255.55 35.9439Z" fill="#9F616A"/>
<path d="M260 39C268.284 39 275 32.2843 275 24C275 15.7157 268.284 9 260 9C251.716 9 245 15.7157 245 24C245 32.2843 251.716 39 260 39Z" fill="#2F2E41"/>
<path d="M261 15C264.314 15 267 12.3137 267 9C267 5.68629 264.314 3 261 3C257.686 3 255 5.68629 255 9C255 12.3137 257.686 15 261 15Z" fill="#2F2E41"/>
<path d="M253.321 6C253.321 2.92829 255.772 0.352696 259 0.032442C258.781 0.010882 258.56 5.36042e-05 258.34 0C254.838 0 252 2.68629 252 6C252 9.31371 254.838 12 258.34 12C258.56 11.9999 258.781 11.9891 259 11.9676C255.772 11.6473 253.321 9.07171 253.321 6Z" fill="#2F2E41"/>
<path d="M259 41C264.523 41 269 36.5228 269 31C269 25.4772 264.523 21 259 21C253.477 21 249 25.4772 249 31C249 36.5228 253.477 41 259 41Z" fill="#9F616A"/>
<path d="M266.934 44.5436C266.934 44.5436 258.171 47.1901 253.79 44.5436C249.408 41.8971 238.941 49.596 237.237 52.9643C235.533 56.3326 243.566 59.7008 243.566 59.7008C243.566 59.7008 241.272 66.2052 241.741 69.4447C242.227 72.813 241.375 79.6698 241.375 79.6698C241.375 79.6698 262.88 93.6735 267.665 87.3687C268.395 86.4063 274.48 63.7908 274.48 63.7908L283 55.3702C283 55.3702 277.645 47.6713 274.48 46.9495C271.316 46.2277 266.934 44.5436 266.934 44.5436Z" fill="#D0CDE1"/>
<path d="M207.802 94C207.802 94 191.012 102.307 194.469 104.681C197.926 107.054 212 95.4241 212 95.4241L207.802 94Z" fill="#9F616A"/>
<path d="M272.884 87.1428C272.884 87.1428 265.325 82.2322 264.107 84.6875C262.89 87.1428 272.384 92.6716 274.383 90.5082C276.382 88.3447 272.884 87.1428 272.884 87.1428Z" fill="#9F616A"/>
<path d="M278.179 52L282.454 54.7018C282.454 54.7018 296.943 75.3333 291.955 80C286.967 84.6667 274.141 94 274.141 94C274.141 94 269.866 87.614 271.291 87.3684C272.716 87.1228 284.117 77.2982 284.117 77.2982L274.141 58.1403L278.179 52Z" fill="#D0CDE1"/>
<path d="M240.372 51L237.205 52.207L228.923 66.9326L207 93.2454C207 93.2454 209.923 97.832 212.359 96.8664C214.795 95.9008 233.064 75.623 233.064 75.623L245 57.2765L240.372 51Z" fill="#D0CDE1"/>
<path d="M260.5 25C266.299 25 271 22.3137 271 19C271 15.6863 266.299 13 260.5 13C254.701 13 250 15.6863 250 19C250 22.3137 254.701 25 260.5 25Z" fill="#2F2E41"/>
<rect x="191" y="150" width="48" height="48" fill="#222F65"/>
<path fill-rule="evenodd" clip-rule="evenodd" d="M223.833 183.525C228.837 183.525 232 179.27 232 172.518C232 163.333 224.964 157 214.81 157C204.246 157 197 164.126 197 174.504C197 185.138 204.1 191.991 215.193 192C217.115 192.009 219.032 191.802 220.908 191.38C221.668 191.196 222.144 190.439 221.978 189.674C221.812 188.909 221.066 188.417 220.297 188.564C218.66 188.853 217.001 188.993 215.339 188.984C206.215 188.984 200.354 183.389 200.354 174.623C200.354 166.048 206.279 159.989 214.591 159.989C222.995 159.989 228.682 165.064 228.682 172.655C228.682 177.411 227.078 180.473 224.553 180.473C223.095 180.473 222.284 179.589 222.284 178.122V166.34H218.647V168.873H218.283C217.444 167.023 215.539 165.893 213.297 165.893C208.931 165.893 205.941 169.438 205.941 174.532C205.941 179.835 208.913 183.398 213.361 183.398C215.858 183.398 217.717 182.241 218.62 180.127H218.984C219.322 182.159 221.272 183.525 223.833 183.525ZM214.362 180C211.661 180 210 177.917 210 174.477C210 171.027 211.632 169 214.409 169C217.206 169 219 171.092 219 174.477C219 177.861 217.206 180 214.362 180Z" fill="white"/>
</svg>
