<svg width="300" height="198" viewBox="0 0 300 198" fill="none" xmlns="http://www.w3.org/2000/svg">
<path d="M61.5501 86.7026C46.3623 86.7733 34 87.0001 34 87.0001C34 87.0001 48.6945 67.3327 61.495 74.6193C74.2955 81.9059 89 86.7439 89 86.7439C89 86.7439 76.738 86.6319 61.5501 86.7026Z" fill="#F2F2F2"/>
<path d="M232 92.0001C233.657 92.0001 235 90.6569 235 89.0001C235 87.3432 233.657 86.0001 232 86.0001C230.343 86.0001 229 87.3432 229 89.0001C229 90.6569 230.343 92.0001 232 92.0001Z" fill="#FF6584"/>
<path d="M209 139L232.618 111.831L233.373 112.486L209.755 139.656L209 139Z" fill="#3F3D56"/>
<path d="M233 117C235.761 117 238 114.761 238 112C238 109.239 235.761 107 233 107C230.239 107 228 109.239 228 112C228 114.761 230.239 117 233 117Z" fill="#3F3D56"/>
<path d="M218.572 129C218.572 129 227.787 116.545 216 108L218.572 129Z" fill="#3F3D56"/>
<path d="M58.9661 150.427C76.5265 183.012 113.796 197 113.796 197C113.796 197 122.594 158.158 105.034 125.573C87.4736 92.988 50.2042 79.0001 50.2042 79.0001C50.2042 79.0001 41.4058 117.843 58.9661 150.427Z" fill="#3F3D56"/>
<path d="M71.0132 139.436C102.77 158.629 115 196.753 115 196.753C115 196.753 75.7431 203.758 43.9868 184.564C12.2304 165.371 0 127.247 0 127.247C0 127.247 39.2569 120.242 71.0132 139.436Z" fill="#111B47"/>
<path d="M197.641 139.911C165.608 158.743 153 196.599 153 196.599C153 196.599 192.327 203.921 224.359 185.089C256.392 166.257 269 128.402 269 128.402C269 128.402 229.673 121.079 197.641 139.911Z" fill="#3F3D56"/>
<path d="M208.545 151.084C190.602 183.393 153.012 197 153.012 197C153.012 197 144.512 158.225 162.455 125.916C180.398 93.6073 217.988 80.0001 217.988 80.0001C217.988 80.0001 226.488 118.775 208.545 151.084Z" fill="#111B47"/>
<path d="M143.424 62.2475C139.557 58.8206 139.015 53.0617 142.178 49.0001C141.976 49.1856 141.779 49.3782 141.59 49.5829C137.875 53.6085 138.195 59.8225 142.303 63.4623C146.411 67.1021 152.753 66.7893 156.467 62.7637C156.656 62.559 156.832 62.3472 157 62.1318C153.194 65.6231 147.292 65.6734 143.424 62.2475Z" fill="#2F2E41"/>
<path d="M134.5 70.0001C145.822 70.0001 155 60.8219 155 49.5001C155 38.1782 145.822 29.0001 134.5 29.0001C123.178 29.0001 114 38.1782 114 49.5001C114 60.8219 123.178 70.0001 134.5 70.0001Z" fill="#2F2E41"/>
<path d="M129.269 74.5192L129.88 72.9698L118.765 82.1471L105.33 89.5366C105.33 89.5366 98.4906 63.7925 98.0021 63.3158C97.5136 62.8391 88.7197 44.7229 84.8114 53.3042C80.903 61.8856 92.3838 66.8914 92.3838 66.8914C92.3838 66.8914 92.7502 98.2371 104.475 97.9987C116.2 97.7603 130.735 87.3912 130.979 86.4377C131.223 85.4843 129.269 74.5192 129.269 74.5192Z" fill="#FFB8B8"/>
<path d="M132 70.0001C138.627 70.0001 144 64.6275 144 58.0001C144 51.3726 138.627 46.0001 132 46.0001C125.373 46.0001 120 51.3726 120 58.0001C120 64.6275 125.373 70.0001 132 70.0001Z" fill="#FFB8B8"/>
<path d="M134.739 67.0001C134.739 67.0001 137.927 71.1213 136.946 71.6061C135.965 72.091 130.324 72.3334 126.89 76.4546C123.457 80.5758 131.06 91.0001 131.06 91.0001L160 71.8485L148.228 67.9698C148.228 67.9698 140.134 63.6061 140.38 59.0001L134.739 67.0001Z" fill="#FFB8B8"/>
<path d="M173 198H140.783C138.958 184.638 138.114 172.393 138.114 172.393C138.114 172.393 137.643 184.71 136.391 198H95C100.867 158.648 128.682 115.976 128.682 115.976C128.682 115.976 128.924 110.163 129.65 109.193C130.376 108.227 125.539 107.985 123.361 100.721C122.033 96.2869 123.227 93.3853 124.362 91.8002C124.752 91.229 125.231 90.7247 125.781 90.3068C125.781 90.3068 126.265 85.2241 125.781 84.4971C125.719 84.4021 126.197 84.0681 127.08 83.5605C127.816 83.1347 128.833 82.5878 130.049 81.959C137.019 78.3402 150.509 71.9377 155.13 69.7566C156.144 69.2752 156.733 69.0001 156.733 69.0001L164.955 71.9049C171.483 74.0828 171.483 87.8867 171.483 87.8867L171.113 88.4499L161.246 103.416L155.523 112.102C156.975 113.068 154.074 119.123 154.074 119.123C154.074 119.123 158.208 125.07 161.57 134.148C163.471 139.201 164.767 144.461 165.432 149.819C165.856 153.292 165.939 156.797 165.681 160.286C164.785 171.951 168.768 186.128 173 198Z" fill="#2F2E41"/>
<path d="M164.816 73.2725C164.287 72.9659 163.654 72.9154 163.086 73.1346C162.518 73.3539 162.072 73.8204 161.868 74.4098C161.158 76.4232 160.439 80.6205 160.695 89.3472C161.167 105.396 161.402 116.339 161.402 116.339V140.656C161.402 140.656 151.032 164 156.688 164C162.345 164 166.352 145.519 166.352 145.519C166.352 145.519 171.538 117.555 169.888 112.691C169.888 112.691 174.54 79.0937 164.816 73.2725Z" fill="#FFB8B8"/>
<path d="M131.5 54.0001C137.299 54.0001 142 50.8661 142 47.0001C142 43.1341 137.299 40.0001 131.5 40.0001C125.701 40.0001 121 43.1341 121 47.0001C121 50.8661 125.701 54.0001 131.5 54.0001Z" fill="#2F2E41"/>
<path d="M148 41.0001C153.523 41.0001 158 36.5229 158 31.0001C158 25.4772 153.523 21.0001 148 21.0001C142.477 21.0001 138 25.4772 138 31.0001C138 36.5229 142.477 41.0001 148 41.0001Z" fill="#2F2E41"/>
<path d="M154 38.3078C148.801 38.307 144.47 34.2608 144.037 29.0001C144.015 29.2793 144 29.561 144 29.8462C144 35.454 148.477 40.0001 154 40.0001C159.523 40.0001 164 35.454 164 29.8462C164 29.561 163.985 29.2793 163.963 29.0001C163.53 34.2608 159.199 38.307 154 38.3078Z" fill="#2F2E41"/>
<path d="M144.875 55.6723C145.414 55.5481 145.648 54.5749 145.399 53.4988C145.15 52.4226 144.512 51.6509 143.974 51.7751C143.436 51.8993 143.202 52.8725 143.451 53.9487C143.699 55.0248 144.337 55.7965 144.875 55.6723Z" fill="#FFB8B8"/>
<path d="M143.5 55.0001C143.776 55.0001 144 54.7762 144 54.5001C144 54.2239 143.776 54.0001 143.5 54.0001C143.224 54.0001 143 54.2239 143 54.5001C143 54.7762 143.224 55.0001 143.5 55.0001Z" fill="#F2F2F2"/>
<path fill-rule="evenodd" clip-rule="evenodd" d="M25 93.0001C25 95.2092 26.7909 97.0001 29 97.0001C29.0861 97 29.1715 96.9972 29.2563 96.9917C29.3368 96.9972 29.4181 97.0001 29.5 97.0001C31.433 97.0001 33 95.4331 33 93.5001C32.9999 93.4188 32.997 93.3382 32.9915 93.2583C32.997 93.1729 32.9999 93.0868 33 93.0001C33 90.7909 31.2091 89.0001 29 89.0001C26.7909 89.0001 25 90.7909 25 93.0001ZM32.9915 93.2583C32.8655 91.4391 31.3508 90.0022 29.5 90.0001C27.567 90.0001 26 91.5671 26 93.5001C26 95.3511 27.437 96.8666 29.2563 96.9917C31.2595 96.8629 32.8617 95.2613 32.9915 93.2583Z" fill="#3F3D56"/>
<path fill-rule="evenodd" clip-rule="evenodd" d="M190 68.0001H191V60.0001H199V59.0001H190V68.0001Z" fill="#3F3D56"/>
<path d="M272.55 113.703C257.362 113.773 245 114 245 114C245 114 259.695 94.3327 272.495 101.619C285.296 108.906 300 113.744 300 113.744C300 113.744 287.738 113.632 272.55 113.703Z" fill="#F2F2F2"/>
<path d="M225.55 47.7026C210.362 47.7733 198 48.0001 198 48.0001C198 48.0001 212.695 28.3327 225.495 35.6193C238.296 42.9059 253 47.7439 253 47.7439C253 47.7439 240.738 47.6319 225.55 47.7026Z" fill="#F2F2F2"/>
<path d="M82.0828 56.4541L46.6729 38.2126C44.2548 36.9669 43.3026 33.9933 44.546 31.5708L52.8881 15.318C53.1329 14.8411 53.5627 14.4859 54.0766 14.3357L81.9864 6.18291C84.3036 5.50603 86.7444 6.76344 87.5429 9.04535L96.7129 35.2511C97.1759 36.5741 97.0756 38.0296 96.4357 39.2763L88.7125 54.3233C88.1154 55.4866 87.0815 56.3647 85.8382 56.7643C84.5949 57.1639 83.244 57.0523 82.0828 56.4541Z" fill="#F2F2F2"/>
<path opacity="0.1" d="M84.0256 49.8748L48.506 34.8286C47.3615 34.2447 48.4347 35.1423 49.0232 34.0067L53.4882 16.0001L97 38.2005L85.9997 51.6964C85.4112 52.832 85.17 50.4587 84.0256 49.8748Z" fill="black"/>
<path d="M56.1302 41.6278C52.1923 39.6242 50.6261 34.8087 52.6319 30.872L61.7117 13.0519C63.7176 9.11516 68.536 7.548 72.4739 9.55152L90.2994 18.6208C94.2373 20.6243 95.8035 25.4398 93.7977 29.3765L84.7178 47.1967C82.712 51.1334 77.8936 52.7005 73.9557 50.697L56.1302 41.6278Z" fill="#111B47"/>
<path opacity="0.1" d="M90 35.4348L80.9664 53.0001L49 36.565L58.0336 19.0001L70.0446 34.9415L90 35.4348Z" fill="black"/>
<path d="M70.3451 37.0983L54.7794 16.3775C54.5837 16.117 54.2681 15.9757 53.944 16.0035C53.6199 16.0313 53.3329 16.2243 53.1841 16.5144L44.3266 33.788C43.9687 34.486 43.902 35.2979 44.1411 36.0451C44.3801 36.7924 44.9054 37.4139 45.6014 37.7728L84.1929 57.6725C84.8889 58.0314 85.6986 58.0984 86.4438 57.8586C87.189 57.6189 87.8087 57.0921 88.1665 56.3942L96.8724 39.4164C97.0539 39.0624 97.0411 38.6397 96.8385 38.2974C96.636 37.9551 96.2721 37.7414 95.8753 37.7315L70.3451 37.0983Z" fill="#F2F2F2"/>
<path d="M67 9.00006L75.9101 13.54L75.4555 14.4307L66.5455 9.8908L67 9.00006Z" fill="#F2F2F2"/>
<path d="M64 14.0001L90.7302 27.6198L90.2757 28.5105L63.5455 14.8908L64 14.0001Z" fill="#F2F2F2"/>
<path d="M63 16.0001L89.7302 29.6198L89.2757 30.5105L62.5455 16.8908L63 16.0001Z" fill="#F2F2F2"/>
<path d="M61 19.0001L87.7302 32.6198L87.2757 33.5105L60.5455 19.8908L61 19.0001Z" fill="#F2F2F2"/>
<path d="M69.9462 8.06367C70.9491 6.09532 70.166 3.68756 68.197 2.6858C66.2281 1.68404 63.8189 2.46762 62.816 4.43597C61.813 6.40433 62.5962 8.81209 64.5651 9.81385C66.5341 10.8156 68.9432 10.032 69.9462 8.06367Z" fill="white"/>
<path fill-rule="evenodd" clip-rule="evenodd" d="M62.5546 3.714C63.8178 1.25874 66.8332 0.291838 69.2897 1.55436C70.9694 2.42388 71.9513 4.11109 71.9982 5.87757L71.6608 4.85359L65.9286 6.64389L65.0573 4L64 4.33023L65.2094 8L71.9984 5.88342C72.0189 6.69143 71.8438 7.51584 71.4504 8.28601C70.1873 10.7413 67.1719 11.7082 64.7154 10.4456C62.2589 9.18312 61.2915 6.16926 62.5546 3.714ZM71.9984 5.88342L72 5.88292L71.9982 5.87757C71.9983 5.87952 71.9983 5.88147 71.9984 5.88342Z" fill="#57B894"/>
</svg>
