<svg width="301" height="216" viewBox="0 0 301 216" fill="none" xmlns="http://www.w3.org/2000/svg">
<path d="M300.875 129.332C300.875 166.887 278.489 180 250.875 180C223.261 180 200.875 166.887 200.875 129.332C200.875 91.7763 250.875 44 250.875 44C250.875 44 300.875 91.7763 300.875 129.332Z" fill="#F2F2F2"/>
<path d="M249.26 174.827L249.773 143.259L271.125 104.204L249.853 138.307L250.084 124.112L264.8 95.8566L250.145 120.356V120.356L250.56 94.8263L266.318 72.3313L250.625 90.812L250.884 44L249.255 105.971L249.389 103.414L233.368 78.8961L249.132 108.322L247.639 136.834L247.595 136.077L229.125 110.275L247.539 138.75L247.352 142.316L247.319 142.37L247.334 142.662L243.547 215H248.607L249.214 177.636L267.583 149.231L249.26 174.827Z" fill="#3F3D56"/>
<path d="M27.125 192.215C27.125 202.433 21.0808 206 13.625 206C6.16916 206 0.125 202.433 0.125 192.215C0.125 181.998 13.625 169 13.625 169C13.625 169 27.125 181.998 27.125 192.215Z" fill="#F2F2F2"/>
<path d="M13.2735 203.193L13.4076 194.701L19 184.195L13.4288 193.369L13.4891 189.551L17.3434 181.949L13.5052 188.54L13.6138 181.672L17.7411 175.621L13.631 180.593L13.6989 168L13.2723 184.67L13.3071 183.983L9.11104 177.387L13.2399 185.303L12.849 192.973L12.8374 192.769L8 185.828L12.8225 193.488L12.7737 194.447L12.7651 194.462L12.769 194.541L11.7769 214H13.1024L13.2613 203.949L18.0725 196.308L13.2735 203.193Z" fill="#3F3D56"/>
<path d="M2 214.5H274" stroke="#3F3D56" stroke-width="2"/>
<path d="M274 205.686C274 212.59 269.971 215 265 215C264.885 215 264.77 214.999 264.655 214.996C264.425 214.991 264.197 214.98 263.971 214.964C259.485 214.641 256 212.106 256 205.686C256 199.042 264.337 190.657 264.963 190.037L264.964 190.036C264.988 190.012 265 190 265 190C265 190 274 198.782 274 205.686Z" fill="#111B47"/>
<path d="M264.835 213.948L268.325 209.262L264.826 214.462L264.817 215C264.573 214.995 264.331 214.984 264.092 214.968L264.468 208.06L264.465 208.007L264.472 207.996L264.507 207.344L261 202.131L264.518 206.855L264.526 206.993L264.811 201.774L261.808 196.387L264.847 200.858L265.143 190.037L265.144 190V190.036L265.095 198.569L268.084 195.186L265.083 199.304L265.004 203.977L267.795 199.492L264.992 204.664L264.948 207.262L269 201.02L264.933 208.169L264.835 213.948Z" fill="#3F3D56"/>
<rect x="174" y="49" width="3" height="26" rx="1.5" fill="#3F3D56"/>
<rect x="69" y="28" width="2" height="8" rx="1" fill="#3F3D56"/>
<rect x="69" y="44" width="2" height="15" rx="1" fill="#3F3D56"/>
<rect x="69" y="64" width="2" height="15" rx="1" fill="#3F3D56"/>
<rect x="70" width="106" height="214" rx="36" fill="#3F3D56"/>
<rect x="113" y="7" width="15" height="3" rx="1.5" fill="#E6E8EC"/>
<path d="M131.5 9C132.328 9 133 8.32843 133 7.5C133 6.67157 132.328 6 131.5 6C130.672 6 130 6.67157 130 7.5C130 8.32843 130.672 9 131.5 9Z" fill="#E6E8EC"/>
<path d="M170 14.3694V200.634C169.999 205.255 166.226 209.001 161.573 209H85.4274C80.774 209.001 77.0009 205.255 77 200.634V14.3694C76.9998 12.1496 77.8876 10.0207 79.4681 8.45113C81.0486 6.88152 83.1923 5.99981 85.4274 6H96.8218V7.45342C96.8229 11.2591 99.9291 14.3439 103.761 14.345H142.486C146.318 14.345 149.425 11.2595 149.425 7.45342V6H161.573C163.808 5.99981 165.951 6.88152 167.532 8.45113C169.112 10.0207 170 12.1496 170 14.3694Z" fill="white"/>
<rect x="77" y="49" width="93" height="107" fill="#F2F2F2"/>
<path d="M83.5 170L82.9925 169.575C81.1902 168.038 80.0003 167.041 80.0003 165.798C79.9913 165.321 80.1908 164.86 80.5534 164.521C80.916 164.183 81.4108 163.995 81.9251 164C82.5332 164.003 83.1091 164.254 83.5 164.687C83.8909 164.254 84.4668 164.003 85.0749 164C85.5892 163.995 86.084 164.183 86.4466 164.521C86.8092 164.86 87.0087 165.321 86.9997 165.798C86.9997 167.041 85.8098 168.038 84.0075 169.575L83.5 170Z" fill="#FF6584"/>
<path d="M101 168.769L101.925 169C102.26 168.149 103.053 167.497 104.045 167.258C105.036 167.018 106.099 167.222 106.886 167.802L105.473 169H109V166L107.579 167.192C106.546 166.4 105.129 166.114 103.805 166.432C102.48 166.749 101.427 167.627 101 168.769L101 168.769Z" fill="#F2F2F2"/>
<path d="M83 41C85.2091 41 87 39.2091 87 37C87 34.7909 85.2091 33 83 33C80.7909 33 79 34.7909 79 37C79 39.2091 80.7909 41 83 41Z" fill="#111B47"/>
<rect x="90" y="34" width="40" height="5" fill="#111B47"/>
<rect x="80" y="177" width="40" height="5" fill="#F2F2F2"/>
<rect x="80" y="188" width="84" height="5" fill="#F2F2F2"/>
<path d="M97 170L95.9941 168.028C96.4914 166.69 96.034 165.146 94.9212 164.407C93.8085 163.668 92.3799 163.959 91.5708 165.09C90.7616 166.22 90.8187 167.846 91.7046 168.902C92.5905 169.958 94.0351 170.122 95.0926 169.288L97 170Z" fill="#F2F2F2"/>
<path d="M114.875 73.2482H114.875C111.666 73.8981 108.849 75.783 107.044 78.4882C105.239 81.1934 104.594 84.4974 105.251 87.6732L107.8 100L110.654 99.422L110.855 98.1157L111.453 99.2602L128.804 95.7463L129.005 94.44L129.603 95.5845L132 95.0991L129.451 82.7723C128.794 79.5964 126.89 76.8088 124.156 75.0227C121.422 73.2366 118.084 72.5983 114.875 73.2482Z" fill="#2F2E41"/>
<path d="M136.941 112L152 120.767L150.118 125L136 118.651L136.941 112Z" fill="#9F616A"/>
<path d="M117.663 122.36C117.663 122.36 87.8936 122.36 82.9831 130.116C78.0726 137.872 82.0624 148.731 97.4076 151.213C112.753 153.695 159.402 154.936 163.085 145.629C166.768 136.321 164.006 131.047 164.006 131.047C164.006 131.047 148.047 119.878 117.663 122.36Z" fill="#111B47"/>
<path d="M143.783 128.89L159.95 135C159.95 135 166.661 130.112 163.306 124.613C159.95 119.115 144.698 87.3443 144.698 87.3443C144.698 87.3443 140.428 81.2346 145.918 77.8742C151.409 74.5139 153.544 80.0126 153.544 80.0126C153.544 80.0126 153.239 81.2346 155.375 80.3181C157.51 79.4016 161.475 82.4565 159.34 87.3443C157.205 92.232 155.68 93.454 160.255 93.1485C161.908 93.0382 163.361 91.8523 164.544 90.382C166.811 87.564 165.799 85.2942 165.627 81.6795C165.333 75.4874 164.853 71.45 163.306 69.0151C161.17 65.6548 158.12 62.9054 150.189 64.4329C142.258 65.9603 130.666 73.5974 133.412 84.5949C136.157 95.5924 142.258 107.812 142.258 107.812C142.258 107.812 146.528 124.919 143.783 128.89Z" fill="#111B47"/>
<path opacity="0.1" d="M144 129.666C141.347 130.454 138.015 130.838 134.428 130.958C128.17 131.166 121.125 130.57 115.499 129.894C109.422 129.162 105 128.341 105 128.341C107.054 126.274 110.211 125.456 113.921 125.158C118.527 124.787 123.987 125.211 129.26 125.029C131.204 124.955 133.149 125.113 135.061 125.499C140.877 126.695 144 129.666 144 129.666Z" fill="black"/>
<path d="M117.5 96C122.194 96 126 92.1944 126 87.5C126 82.8056 122.194 79 117.5 79C112.806 79 109 82.8056 109 87.5C109 92.1944 112.806 96 117.5 96Z" fill="#9F616A"/>
<path d="M116.165 94.3951C116.165 94.3951 117.684 100.259 116.165 100.568C114.646 100.877 111 102.42 111 102.42L115.557 104.272L124.063 112.296L131.354 116L135 114.765V107.975L129.532 99.3333C129.532 99.3333 125.886 100.568 124.975 96.5556C124.063 92.5432 122.241 91 122.241 91L116.165 94.3951Z" fill="#9F616A"/>
<path d="M115.075 103H111.353C111.353 103 104.84 105.149 101.118 110.059C97.3959 114.97 91.5029 119.881 91.5029 119.881C91.5029 119.881 87.4709 125.406 89.642 133.08C91.8131 140.753 94.9147 146.278 97.7061 144.743C100.498 143.208 93.674 132.159 93.674 132.159L95.535 125.406C95.535 125.406 105.15 114.357 109.182 114.664C113.214 114.97 113.524 118.347 113.524 118.347L122.209 120.802L125 114.97L123.449 108.832L115.075 103Z" fill="#9F616A"/>
<path d="M136.634 121.828C136.054 122.809 135.628 123.871 135.372 124.979C134.989 126.614 134.777 128.283 134.74 129.961C128.483 130.152 121.441 129.608 115.817 128.991C115.319 127.685 114.773 126.182 114.239 124.667C112.799 120.573 111.46 116.395 111.46 115.781C111.46 114.571 117.907 116.688 119.442 116.386C120.977 116.083 121.591 111.245 119.442 108.827C117.293 106.408 111 102.326 111 102.326L113.149 101.721C113.149 101.721 117.907 105.198 127.731 110.943C137.555 116.688 133.564 107.617 133.564 107.617L127.885 99H130.341C130.341 99 135.099 107.012 137.555 110.641C140.011 114.269 139.09 117.897 136.634 121.828Z" fill="#3F3D56"/>
<path d="M108 79L123.65 75.6734L125.522 84.4767L109.871 87.8033L108 79Z" fill="#2F2E41"/>
<path d="M157.5 77C159.985 77 162 74.9853 162 72.5C162 70.0147 159.985 68 157.5 68C155.015 68 153 70.0147 153 72.5C153 74.9853 155.015 77 157.5 77Z" fill="#3F3D56"/>
<path d="M157.5 76C158.881 76 160 74.8807 160 73.5C160 72.1193 158.881 71 157.5 71C156.119 71 155 72.1193 155 73.5C155 74.8807 156.119 76 157.5 76Z" fill="white"/>
<path d="M21.8003 126L21.4874 128.424C21.3815 129.244 21.2755 130.065 21.2185 130.89C21.0287 133.636 21.3824 136.392 21.2893 139.143C21.2177 141.26 20.8814 143.376 21.0438 145.489C21.1875 147.357 21.7177 149.171 22.2448 150.969L22.9982 153.539C23.0107 153.695 23.0948 153.836 23.2258 153.92C23.3567 154.005 23.5194 154.023 23.6658 153.97L27 153.667C26.7865 152.685 26.549 151.661 26.4342 150.662C26.3435 149.873 26.2889 149.079 26.232 148.286C26.0546 145.815 25.8537 143.345 25.6528 140.875L25.2999 136.536C25.1469 134.654 24.992 132.76 24.5196 130.932C24.0489 129.082 23.1126 127.384 21.8003 126Z" fill="#111B47"/>
<path opacity="0.1" d="M21.8003 126L21.4874 128.424C21.3815 129.244 21.2755 130.065 21.2185 130.89C21.0287 133.636 21.3824 136.392 21.2893 139.143C21.2177 141.26 20.8814 143.376 21.0438 145.489C21.1875 147.357 21.7177 149.171 22.2448 150.969L22.9982 153.539C23.0107 153.695 23.0948 153.836 23.2258 153.92C23.3567 154.005 23.5194 154.023 23.6658 153.97L27 153.667C26.7865 152.685 26.549 151.661 26.4342 150.662C26.3435 149.873 26.2889 149.079 26.232 148.286C26.0546 145.815 25.8537 143.345 25.6528 140.875L25.2999 136.536C25.1469 134.654 24.992 132.76 24.5196 130.932C24.0489 129.082 23.1126 127.384 21.8003 126Z" fill="black"/>
<path d="M28.9943 208.88C28.8025 209.25 28.6355 209.631 28.4945 210.023C28.1204 211.103 28.0638 212.261 28.0106 213.401C27.9851 213.621 28.0058 213.843 28.0716 214.055C28.2315 214.465 28.6924 214.673 29.1234 214.787C30.928 215.264 32.8309 214.815 34.6922 214.651C36.5192 214.49 38.3802 214.606 40.1697 214.21C40.4341 214.161 40.6897 214.074 40.9282 213.951C41.3818 213.661 41.7202 213.226 41.8866 212.72C41.9411 212.59 41.9777 212.454 41.9955 212.315C42.0546 211.715 41.5231 211.194 40.9442 210.997C40.3653 210.8 39.7358 210.832 39.1264 210.771C36.549 210.51 34.4699 208.581 34.055 206.066C34.0334 205.935 31.0416 206.012 30.7267 206.182C30.3581 206.381 30.135 206.878 29.9274 207.213C29.5919 207.755 29.2809 208.311 28.9943 208.88Z" fill="#3F3D56"/>
<path opacity="0.1" d="M28.9943 208.88C28.8025 209.25 28.6355 209.631 28.4945 210.023C28.1204 211.103 28.0638 212.261 28.0106 213.401C27.9851 213.621 28.0058 213.843 28.0716 214.055C28.2315 214.465 28.6924 214.673 29.1234 214.787C30.928 215.264 32.8309 214.815 34.6922 214.651C36.5192 214.49 38.3802 214.606 40.1697 214.21C40.4341 214.161 40.6897 214.074 40.9282 213.951C41.3818 213.661 41.7202 213.226 41.8866 212.72C41.9411 212.59 41.9777 212.454 41.9955 212.315C42.0546 211.715 41.5231 211.194 40.9442 210.997C40.3653 210.8 39.7358 210.832 39.1264 210.771C36.549 210.51 34.4699 208.581 34.055 206.066C34.0334 205.935 31.0416 206.012 30.7267 206.182C30.3581 206.381 30.135 206.878 29.9274 207.213C29.5919 207.755 29.2809 208.311 28.9943 208.88Z" fill="black"/>
<path d="M33.9943 208.88C33.8025 209.25 33.6355 209.631 33.4945 210.023C33.1204 211.103 33.0638 212.261 33.0106 213.401C32.9851 213.621 33.0058 213.843 33.0716 214.055C33.2315 214.465 33.6924 214.673 34.1234 214.787C35.928 215.264 37.8309 214.815 39.6922 214.651C41.5192 214.49 43.3802 214.606 45.1697 214.21C45.4341 214.161 45.6898 214.074 45.9282 213.951C46.3818 213.661 46.7202 213.226 46.8866 212.72C46.9411 212.59 46.9777 212.454 46.9955 212.315C47.0546 211.715 46.5231 211.194 45.9442 210.997C45.3653 210.8 44.7358 210.832 44.1264 210.771C41.549 210.51 39.4699 208.581 39.055 206.066C39.0334 205.935 36.0416 206.012 35.7267 206.182C35.3581 206.381 35.135 206.878 34.9274 207.213C34.5919 207.755 34.2809 208.311 33.9943 208.88Z" fill="#3F3D56"/>
<path d="M46.9994 177.975C47.0386 184.135 45.2628 190.157 43.1801 195.948C42.3555 198.24 41.4805 200.513 40.5551 202.765C40.0073 204.1 39.39 205.581 39.977 206.899C38.2875 206.25 36.5577 205.867 34.7741 206.166C35.4531 204.77 35.3892 203.145 35.4194 201.591C35.4784 199.48 35.7036 197.378 36.0928 195.303C36.6902 192.147 37.7153 189.088 39.139 186.214C39.4276 185.608 39.6266 184.962 39.7294 184.298C39.9143 182.82 39.8292 181.321 39.4785 179.875C38.8276 176.67 37.5922 173.616 35.8351 170.867C35.8295 170.928 35.8239 170.99 35.8172 171.051C35.7109 171.967 35.5579 172.877 35.3589 173.778C34.9601 175.686 34.4951 177.595 34.5646 179.513C34.6394 181.548 34.5144 183.585 34.1915 185.595C34.089 186.384 33.8853 187.157 33.5854 187.894C33.3905 188.335 33.1362 188.749 32.9827 189.206C32.8304 189.734 32.7509 190.281 32.7463 190.83C32.5189 195.47 32.7429 201.406 33.6829 205.953C32.0989 205.88 30.5248 206.242 29.1287 207C27.9926 203.766 27.2689 199.173 26.7278 195.767C26.115 191.743 26.2396 187.641 27.0952 183.663C27.3614 182.335 27.4611 180.98 27.3922 179.627C27.2711 176.934 26.6146 174.299 25.9626 171.684C25.631 170.357 25.2993 169.03 24.9677 167.702C24.496 165.811 24.0236 163.919 23.5505 162.027C23.2368 160.769 22.9197 159.484 23.0183 158.19C23.0876 157.48 23.2353 156.781 23.4586 156.104C24.1644 153.802 25.2196 151.624 26.5866 149.648C32.0304 149.957 37.5403 149.443 42.9762 149.021C43.2405 148.968 43.5148 149.015 43.747 149.153C43.9315 149.343 44.0414 149.594 44.0562 149.86C44.7374 153.752 45.4182 157.644 46.0986 161.536C46.43 163.161 46.6245 164.811 46.6801 166.47C46.6901 168.122 46.4246 169.769 46.4862 171.421C46.5691 173.645 46.9859 175.749 46.9994 177.975Z" fill="#2F2E41"/>
<path opacity="0.1" d="M36 172.246C35.8868 173.171 35.7239 174.091 35.512 175C34.2509 172.913 32.8919 170.878 31.731 168.739C31.4316 168.187 31.1464 167.629 30.8601 167.072C30.5749 166.515 30.2898 165.957 30.0046 165.4C29.8447 165.087 29.6837 164.773 29.5393 164.453C29.3034 163.99 29.1226 163.504 29 163.004C29.4224 162.929 30.4627 164.019 30.7753 164.303C31.4166 164.908 32.022 165.547 32.5889 166.217C33.2747 166.959 33.9043 167.748 34.4728 168.576C35.1993 169.706 35.716 170.948 36 172.246Z" fill="black"/>
<path d="M40 115.596C40 115.596 36.972 120.637 37.5327 121.692C38.0935 122.747 28 120.754 28 120.754C28 120.754 33.4953 115.713 32.9346 113.603C32.3738 111.493 40 115.596 40 115.596Z" fill="#EFB7B9"/>
<path d="M37 117C40.866 117 44 113.866 44 110C44 106.134 40.866 103 37 103C33.134 103 30 106.134 30 110C30 113.866 33.134 117 37 117Z" fill="#EFB7B9"/>
<path d="M40.3423 120.483C39.5974 119.449 38.5861 118.635 37.4155 118.127C36.7416 117.886 36.045 117.715 35.3362 117.615L32.5596 117.128C31.8791 117.008 31.1507 116.894 30.5194 117.174C30.1967 117.337 29.9029 117.551 29.6498 117.809C28.6847 118.7 27.7494 119.681 26.5394 120.196C26.2082 120.337 25.8617 120.44 25.531 120.582C24.1771 121.164 23.1649 122.379 22.5898 123.733C21.9865 125.154 21.969 126.694 22.0166 128.237C22.0151 128.769 22.0675 129.3 22.1731 129.822C22.3132 130.318 22.4892 130.804 22.6998 131.275C23.0832 132.281 23.4044 133.31 23.6614 134.355C24.3807 137.103 24.9788 139.879 25.4555 142.683C25.4971 143.086 25.6158 143.477 25.8054 143.836C26.0733 144.192 26.3975 144.503 26.7653 144.756C27.0566 144.997 27.3258 145.263 27.5698 145.551C27.6888 145.674 27.776 145.825 27.824 145.989C27.914 146.403 27.547 146.758 27.249 147.061C26.6301 147.691 26.1827 148.468 25.9493 149.32C25.8039 149.494 25.7301 149.717 25.7428 149.944C25.8024 150.101 25.8246 150.269 25.8077 150.436C25.7505 150.589 25.6613 150.727 25.5459 150.842C25.2774 151.191 25.1723 151.638 25.2572 152.07C27.4145 153.005 29.7231 153.545 32.0723 153.662C32.6475 153.689 33.2251 153.689 33.7966 153.759C34.2043 153.81 34.607 153.895 35.0149 153.943C35.6084 153.998 36.2049 154.013 36.8005 153.988C39.8982 153.927 43.0868 153.847 45.9313 152.621C46.1992 151.165 45.6219 149.682 45.2598 148.246C44.684 145.963 44.5388 143.596 44.1104 141.281C43.8171 139.696 43.3911 138.137 43.1469 136.544C42.9027 134.951 42.8454 133.3 43.2842 131.749C43.673 130.375 43.7903 128.976 44.1934 127.606C44.5964 126.236 44.8788 124.751 44.4238 123.397C43.8597 121.719 42.114 120.391 40.3423 120.483Z" fill="#111B47"/>
<path d="M43.9102 106.331C44.2468 105.128 43.5848 103.876 42.7928 102.899C41.9418 101.849 40.8423 100.902 39.4996 100.638C38.4085 100.424 37.2779 100.683 36.1685 100.597C35.1851 100.52 34.2429 100.175 33.2646 100.051C32.3797 99.9585 31.4857 99.9916 30.6105 100.15C29.7785 100.269 28.9654 100.491 28.191 100.811C25.2442 102.089 23.5175 105.245 23.1169 108.374C22.7162 111.504 23.4188 114.657 24.1171 117.736L24.7484 120.519C25.4055 123.416 26.0647 126.328 26.2405 129.291C26.4163 132.253 26.0883 135.294 24.8429 138C28.8695 135.884 31.9892 132.427 33.6381 128.256C34.0859 127.11 34.4174 125.921 34.9134 124.795C35.3402 123.826 35.8865 122.908 36.2648 121.92C36.6914 120.803 36.8962 119.617 36.8683 118.426C36.8468 117.53 36.6936 116.639 36.7203 115.743C36.747 114.848 36.9797 113.913 37.6123 113.266C38.1746 112.69 38.9735 112.414 39.6981 112.051C40.8376 111.479 41.833 110.666 42.6127 109.671C43.0689 109.09 43.0932 108.841 43.2092 108.17C43.3221 107.518 43.7329 106.965 43.9102 106.331Z" fill="#2F2E41"/>
<path d="M44.136 157.873C44.2123 158.596 44.0717 159.337 44.241 160.047C44.3683 160.58 44.664 161.064 44.8379 161.586C45.0106 162.19 45.0994 162.813 45.1022 163.438C45.1273 163.963 45.0842 164.6 44.5875 164.846C44.3693 164.954 44.1076 164.956 43.8806 165.047C43.6535 165.137 43.4587 165.395 43.5887 165.591C43.6981 165.755 43.9462 165.757 44.1496 165.796C44.353 165.835 44.5768 166.032 44.4588 166.192C44.4113 166.244 44.3482 166.281 44.2776 166.299C44.0696 166.358 43.8727 166.446 43.6941 166.562C43.5135 166.682 43.4206 166.887 43.4539 167.091C43.4787 167.189 43.5503 167.271 43.6482 167.313C43.746 167.355 43.8592 167.353 43.955 167.307C43.8639 167.489 43.8141 167.686 43.8088 167.887C44.6036 168.206 45.4983 167.789 46.2463 167.383C46.5707 167.215 46.8839 167.029 47.1841 166.825C48.4071 165.943 49.0838 164.553 48.9917 163.113C48.957 162.756 48.8984 162.401 48.8161 162.051C48.7002 161.442 48.5471 160.84 48.3576 160.247C48.1438 159.622 47.8499 159.023 47.5978 158.411C47.0607 157.105 46.7149 155.738 46.2313 154.415C46.2172 154.287 46.1468 154.17 46.0369 154.093C45.927 154.016 45.7875 153.985 45.6521 154.007C45.1071 153.981 44.5609 154.028 44.0302 154.147C43.7095 154.234 43.1835 154.427 43.0397 154.74C42.9102 155.023 43.1273 155.276 43.265 155.518C43.716 156.243 44.0118 157.043 44.136 157.873Z" fill="#EFB7B9"/>
<path opacity="0.1" d="M43.3643 123C43.5095 123.15 43.6311 123.323 43.7248 123.511C44.6917 125.302 44.704 127.445 44.7495 129.488C44.8006 131.788 44.9242 134.086 45.0477 136.383L45.4171 143.253C45.4524 143.91 45.4878 144.567 45.5781 145.218C46.0127 145.33 46.0307 145.902 45.9803 146.356C45.6692 149.159 44.8952 152.045 45.7058 154.743C45.7368 154.882 45.802 155.011 45.8954 155.117C45.4868 154.986 45.0493 154.98 44.6374 155.1C44.2333 155.186 43.8448 155.337 43.4421 155.43C42.9298 155.549 42.3489 155.6 41.9994 156C41.6044 154.788 41.2899 153.55 41.0579 152.294C40.866 151.153 40.8137 149.967 40.3576 148.907C40.1734 148.479 39.9273 148.082 39.7027 147.675C38.5212 145.531 37.9428 143.105 37.3774 140.715C37.1236 139.581 37.0627 138.412 37.1975 137.257C37.2778 136.73 37.325 136.199 37.3387 135.666C37.3027 135.104 37.2304 134.544 37.1222 133.992C36.8835 132.371 36.9953 130.717 37.4498 129.145C37.8731 127.685 38.2444 126.149 39.1298 124.923C40.0152 123.696 41.8703 123.021 43.3643 123Z" fill="black"/>
<path d="M43.3643 123C43.5095 123.15 43.6311 123.323 43.7248 123.511C44.6917 125.302 44.704 127.445 44.7495 129.488C44.8006 131.788 44.9242 134.086 45.0477 136.383L45.4171 143.253C45.4524 143.91 45.4878 144.567 45.5781 145.218C46.0127 145.33 46.0307 145.902 45.9803 146.356C45.6692 149.159 44.8952 152.045 45.7058 154.743C45.7368 154.882 45.802 155.011 45.8954 155.117C45.4868 154.986 45.0493 154.98 44.6374 155.1C44.2333 155.186 43.8448 155.337 43.4421 155.43C42.9298 155.549 42.3489 155.6 41.9994 156C41.6044 154.788 41.2899 153.55 41.0579 152.294C40.866 151.153 40.8137 149.967 40.3576 148.907C40.1734 148.479 39.9273 148.082 39.7027 147.675C38.5212 145.531 37.9428 143.105 37.3774 140.715C37.1236 139.581 37.0627 138.412 37.1975 137.257C37.2778 136.73 37.325 136.199 37.3387 135.666C37.3027 135.104 37.2304 134.544 37.1222 133.992C36.8835 132.371 36.9953 130.717 37.4498 129.145C37.8731 127.685 38.2444 126.149 39.1298 124.923C40.0152 123.696 41.8703 123.021 43.3643 123Z" fill="#111B47"/>
<g opacity="0.1">
<path d="M41.7929 101.814C40.942 100.795 39.8426 99.8754 38.5 99.6195C37.409 99.4116 36.2785 99.6626 35.1692 99.5791C34.186 99.505 33.2438 99.1701 32.2656 99.0499C31.3808 98.9597 30.4868 98.9919 29.6117 99.1455C28.7798 99.2608 27.9668 99.4765 27.1924 99.7873C26.774 99.9643 26.3746 100.179 26 100.43C26.6903 100.182 27.4066 100.004 28.1366 99.9C29.0117 99.7464 29.9056 99.7141 30.7905 99.8044C31.7686 99.9246 32.7108 100.259 33.6941 100.334C34.8033 100.417 35.9338 100.166 37.0249 100.374C38.3674 100.63 39.4668 101.549 40.3177 102.568C41.1097 103.517 41.7716 104.732 41.435 105.899C41.2578 106.514 40.847 107.051 40.7341 107.684C40.6181 108.335 40.5938 108.577 40.1376 109.141C39.5505 109.867 38.8403 110.495 38.0361 111C38.258 110.9 38.4816 110.802 38.6985 110.696C39.8379 110.141 40.8332 109.352 41.6128 108.387C42.069 107.822 42.0933 107.581 42.2093 106.93C42.3222 106.296 42.7329 105.76 42.9102 105.145C43.2468 103.977 42.5849 102.762 41.7929 101.814Z" fill="black"/>
<path d="M36.6175 112.328C36.7351 112.208 36.8631 112.098 37 112C36.3464 112.313 35.6588 112.588 35.1598 113.103C34.5347 113.749 34.3048 114.681 34.2784 115.575C34.252 116.468 34.4033 117.357 34.4246 118.25C34.4522 119.439 34.2498 120.622 33.8283 121.735C33.4545 122.721 32.9147 123.637 32.493 124.604C32.0029 125.727 31.6753 126.913 31.2329 128.056C29.8195 131.662 27.3096 134.748 24.0485 136.888C24.0319 136.925 24.0169 136.963 24 137C27.9786 134.889 31.0613 131.441 32.6906 127.28C33.1331 126.137 33.4607 124.952 33.9508 123.828C34.3725 122.861 34.9123 121.946 35.286 120.96C35.7076 119.846 35.91 118.663 35.8824 117.475C35.8611 116.581 35.7098 115.692 35.7361 114.799C35.7625 113.906 35.9925 112.974 36.6175 112.328Z" fill="black"/>
</g>
<path d="M188.725 213.357C188.377 213.729 187.782 213.804 187.244 213.853C186.548 213.943 185.843 213.955 185.144 213.889C184.313 213.779 183.816 214.198 183.057 213.876C182.598 213.681 181.892 214.071 181.433 213.876C180.804 213.609 178.631 213.554 178.249 213.033C177.866 212.512 177.905 211.689 178.51 211.381C178.682 211.309 178.859 211.247 179.04 211.197C180.054 210.839 182.108 208.141 183.187 208.003C183.722 207.981 184.253 208.092 184.721 208.323C185.784 208.742 187.662 209.072 188.126 210.135C188.488 210.962 189.477 212.548 188.725 213.357Z" fill="#2F2E41"/>
<path d="M195.268 214.066C195.607 214.488 196.188 214.572 196.713 214.628C197.392 214.729 198.081 214.743 198.763 214.668C199.573 214.544 200.56 215.26 201.3 214.895C201.748 214.675 202.437 214.79 202.885 214.569C203.498 214.267 206.384 214.941 206.758 214.351C207.131 213.761 207.093 212.829 206.502 212.481C206.335 212.399 206.162 212.329 205.985 212.273C204.996 211.867 201.724 208.16 200.672 208.003C200.15 207.978 199.631 208.104 199.175 208.366C198.137 208.84 196.305 209.214 195.853 210.417C195.5 211.355 194.535 213.15 195.268 214.066Z" fill="#2F2E41"/>
<path d="M198.64 151.574C198.952 152.17 199.224 152.786 199.455 153.418C202.218 160.703 202.45 168.665 202.564 176.453C202.554 177.719 202.627 178.985 202.781 180.242C202.897 181.039 203.08 181.845 202.962 182.641C202.86 183.33 202.535 184.01 202.664 184.694C202.722 185.001 202.87 185.285 202.928 185.592C202.973 185.929 202.964 186.27 202.901 186.604L202.53 189.351C202.319 190.916 201.832 192.423 201.859 194.002C201.877 195.079 201.895 196.158 202.015 197.228C202.137 198.315 202.365 199.394 202.376 200.487C202.385 201.306 202.273 202.121 202.2 202.937C202.097 204.089 202.074 205.247 202.13 206.402C202.174 207.292 202.276 208.216 202.75 208.972C202.219 209.731 201.694 210.41 200.844 210.781C199.117 211.536 197.136 211.28 195.27 211.01C195.374 210.667 195.534 210.278 195.384 209.952C195.297 209.794 195.189 209.648 195.064 209.517C194.657 208.94 194.374 208.285 194.234 207.593C194.008 206.773 193.782 205.89 194.246 205.103C194.405 204.823 194.476 204.501 194.448 204.18C194.062 199.015 192.908 193.671 193.97 188.603C194.084 188.062 194.219 187.524 194.282 186.975C194.339 186.185 194.349 185.392 194.31 184.601L194.288 183.5C194.233 182.325 194.281 181.121 194.044 179.959C193.875 179.127 193.559 178.291 193.949 177.443C194.121 177.049 194.1 176.597 193.891 176.221C193.071 174.79 192.412 173.273 191.925 171.699C191.824 171.259 191.685 170.828 191.511 170.411C191.273 169.972 191 169.553 190.694 169.158C189.769 167.822 189.216 166.272 188.674 164.742C188.731 164.601 188.687 164.406 188.536 164.426C188.387 164.464 188.259 164.559 188.18 164.691C187.436 165.687 187.374 167.016 187.34 168.257C187.284 169.41 187.304 170.566 187.4 171.716C187.463 172.319 187.569 172.917 187.623 173.521C187.694 174.647 187.676 175.777 187.569 176.901L187.19 182.43C187.138 182.887 187.166 183.349 187.271 183.797C187.515 184.572 187.634 185.38 187.623 186.192C187.523 189.532 187.813 192.872 188.487 196.145C188.672 197.048 188.886 197.946 189.044 198.855C189.415 200.997 189.465 203.18 189.515 205.353C189.546 206.689 189.568 208.073 189.04 209.302C188.833 209.68 188.682 210.086 188.59 210.507C188.588 210.725 188.559 210.941 188.503 211.151C188.348 211.548 187.883 211.718 187.465 211.808C186.679 211.979 185.873 212.036 185.07 211.978C184.882 211.975 184.696 211.934 184.524 211.857C184.225 211.703 184.066 211.376 183.839 211.128C183.348 210.594 182.532 210.43 182.085 209.859C181.526 209.145 181.76 208.11 182.093 207.267C182.426 206.425 182.838 205.509 182.552 204.65C182.214 203.637 181.017 203.091 180.696 202.073C181.613 197.966 179.36 193.718 179.553 189.515C179.598 188.536 179.769 187.564 179.772 186.584C179.781 184.06 178.684 181.604 178.864 179.086C179.323 172.687 177.136 166.299 176.21 159.95C176.034 159.003 175.968 158.038 176.014 157.076C176.152 155.487 176.892 154.008 177.782 152.682C178.42 151.732 179.187 150.803 180.244 150.359C181.114 149.993 182.089 149.994 183.033 150.002C185.389 150.02 187.746 150.038 190.101 150.08C191.705 150.058 193.306 150.201 194.88 150.506C196.154 150.797 197.346 151.389 198.64 151.574Z" fill="#2F2E41"/>
<path d="M160.73 122.57C160.499 121.405 160.935 120.16 160.594 119.024C160.471 118.615 160.168 118.189 159.752 118.201C159.348 118.213 159.074 118.62 158.716 118.813C158.138 119.124 157.437 118.842 156.859 118.53C156.282 118.218 155.639 117.865 155.012 118.052C154.939 118.456 155.204 118.841 155.492 119.125C155.811 119.374 156.075 119.689 156.267 120.051C156.36 120.442 156.396 120.845 156.372 121.247C156.438 122.169 157.005 122.964 157.572 123.681C158.485 124.838 159.455 125.945 160.478 127C160.476 126.998 162.029 125.019 162 124.673C161.971 124.347 161.449 124.042 161.259 123.779C160.999 123.421 160.818 123.008 160.73 122.57Z" fill="#A1616A"/>
<path d="M206.555 145.913C206.7 146.28 206.809 146.661 206.88 147.049C207.301 149.036 207.566 151.051 207.827 153.065C207.897 153.602 207.967 154.14 207.988 154.681C208.062 155.966 207.791 157.248 207.201 158.4C206.602 159.554 205.582 160.449 204.342 160.911C203.96 161.043 203.426 161.067 203.259 160.707C203.2 160.54 203.201 160.359 203.263 160.193C203.414 159.657 203.721 159.176 203.92 158.655C204.215 157.877 204.264 157.03 204.061 156.224C203.983 155.916 203.817 155.572 203.498 155.511C203.657 156.221 203.523 156.965 203.124 157.579C203.033 157.751 202.877 157.88 202.688 157.939C202.416 157.966 202.162 157.806 202.074 157.553C201.996 157.305 201.979 157.043 202.025 156.788C202.127 155.496 202.329 154.214 202.628 152.952C202.984 151.567 203.549 150.2 203.513 148.772C203.48 147.479 202.951 146.208 203.099 144.922C203.101 144.843 203.128 144.766 203.175 144.701C203.221 144.656 203.278 144.622 203.34 144.602C203.711 144.452 204.092 144.329 204.481 144.234C204.711 144.177 205.495 143.911 205.715 144.03C205.893 144.126 205.948 144.703 206.037 144.898C206.195 145.243 206.405 145.563 206.555 145.913Z" fill="#A1616A"/>
<path d="M181 108C183.761 108 186 105.761 186 103C186 100.239 183.761 98 181 98C178.239 98 176 100.239 176 103C176 105.761 178.239 108 181 108Z" fill="#A1616A"/>
<path d="M186.626 106.561C186.626 106.89 186.652 107.219 186.703 107.543C186.774 107.872 186.873 108.193 187 108.504C187.17 109.009 187.41 109.486 187.713 109.922C188.02 110.361 188.48 110.666 189 110.774C185.523 112.428 181.811 113.516 178 114C178.6 113.595 179.1 113.053 179.459 112.419C179.65 112.012 179.78 111.578 179.846 111.132C180.17 109.265 180.005 107.345 179.368 105.564C179.304 105.388 179.243 105.172 179.362 105.03C179.413 104.978 179.475 104.937 179.543 104.911C181.054 104.262 182.686 103.953 184.326 104.006C184.745 104.009 185.164 104.028 185.582 104.058C185.806 104.075 186.303 104.027 186.482 104.194C186.695 104.393 186.588 105.012 186.595 105.283L186.626 106.561Z" fill="#A1616A"/>
<path d="M188.765 111.101C187.22 109.123 184.522 108.452 182.228 109.474C179.797 110.633 178.6 113.416 176.462 115.053C175.975 115.416 175.457 115.735 174.913 116.005C174.592 116.183 174.25 116.318 173.895 116.408C173.495 116.496 173.078 116.484 172.68 116.579C171.922 116.802 171.276 117.302 170.872 117.981C170.672 118.335 170.45 118.677 170.208 119.004C169.984 119.269 169.707 119.483 169.471 119.737C168.62 120.649 168.39 121.959 168.196 123.19C167.53 123.89 166.805 124.529 166.027 125.101C165.782 125.289 165.51 125.439 165.221 125.546C164.473 125.788 163.648 125.48 163.011 125.02C162.373 124.561 161.854 123.954 161.225 123.482C160.648 124.307 160.044 125.134 159.429 125.93C159.336 126.082 159.194 126.198 159.027 126.259C158.912 126.648 159.189 127.05 159.396 127.398L160.51 129.267C160.878 129.947 161.33 130.579 161.854 131.148C162.386 131.72 163.113 132.073 163.892 132.138C164.384 132.133 164.871 132.04 165.33 131.863C167.452 131.15 169.4 130.013 171.419 129.046C171.784 128.837 172.194 128.717 172.615 128.696C173.047 128.684 173.434 128.962 173.56 129.375C173.791 130.542 174.021 131.706 174.34 132.853C174.64 133.934 174.919 135.022 175.176 136.115C175.348 136.783 175.471 137.464 175.544 138.15C175.577 138.54 175.581 138.932 175.584 139.323L175.627 144.052C175.632 144.561 175.341 144.878 175.118 145.336C174.775 146.046 174.723 146.861 174.974 147.608C175.099 147.977 175.296 148.318 175.435 148.682C175.772 149.562 175.759 150.531 175.741 151.472L175.701 153.63C175.691 153.719 175.707 153.81 175.747 153.89C175.879 154.096 176.197 153.975 176.398 153.836L177.408 153.137C178.76 153.323 180.126 153.389 181.489 153.334C185.366 153.278 189.245 153.432 193.113 153.702C194.403 153.792 195.738 153.89 196.958 153.46C197.577 153.242 198.147 152.893 198.78 152.718C199.041 152.678 199.289 152.576 199.503 152.421C199.857 152.094 199.763 151.52 199.618 151.06C199.492 150.658 199.349 150.262 199.188 149.871C199.023 149.513 198.888 149.141 198.785 148.759C198.592 147.898 198.78 146.904 198.244 146.203C197.043 144.634 197.893 142.221 197.389 140.311C197.226 139.693 196.985 139.098 196.832 138.477C196.736 138.088 196.675 137.691 196.615 137.294C196.457 136.436 196.378 135.566 196.38 134.694C196.395 134.258 196.45 133.824 196.505 133.39L196.886 130.382C197.363 131.272 197.695 132.232 197.868 133.226C198.216 134.711 198.643 136.176 199.149 137.614C199.437 138.482 199.725 139.349 200.035 140.209C200.232 140.698 200.383 141.204 200.488 141.721C200.557 142.138 200.559 142.563 200.607 142.982C200.711 143.882 201.027 144.745 201.527 145.501C201.62 145.676 201.773 145.812 201.958 145.883C202.083 145.906 202.212 145.9 202.335 145.867C203.683 145.601 204.988 145.151 206.212 144.528C206.473 144.42 206.7 144.243 206.867 144.017C207.197 143.482 206.828 142.813 206.668 142.205C206.496 141.554 206.536 140.77 206.023 140.334C204.234 138.814 205.122 135.728 204.227 133.56C204.07 133.179 203.887 132.809 203.751 132.42C203.648 132.123 203.573 131.816 203.497 131.511C202.872 128.985 202.203 126.471 201.491 123.969C200.752 121.374 200.831 118.671 199.9 116.138C199.726 115.607 199.497 115.095 199.219 114.61C198.904 114.104 198.483 113.671 197.986 113.342C196.635 112.45 195.273 111.691 193.687 111.368C192.101 111.044 190.384 111.094 188.765 111.101Z" fill="#D0CDE1"/>
<path d="M177.015 104.712C176.342 104.337 176.519 103.32 176.405 102.539C176.17 100.931 174.413 99.9776 174 98.4088C174.474 98.469 174.955 98.3986 175.394 98.2048C175.479 97.6839 175.379 97.1488 175.113 96.6978C176.558 96.0909 177.728 94.8999 179.195 94.353C181.04 93.6651 183.095 94.0873 184.957 94.7268C185.885 95.0459 186.852 95.4601 187.414 96.2888C188.03 97.199 188.021 98.3971 187.988 99.5079C187.936 101.25 187.869 103.055 187.119 104.615C186.164 106.603 183.459 108.443 181.225 107.905C180.295 107.681 180.022 107.078 179.63 106.243C179.386 105.723 179.295 105.12 178.746 104.85C178.209 104.586 177.559 105.015 177.015 104.712Z" fill="#2F2E41"/>
<g opacity="0.1">
<path d="M197.481 141C197.502 141.331 197.515 141.665 197.519 142C197.498 141.67 197.486 141.336 197.481 141Z" fill="black"/>
<path d="M175.663 146.894C176.025 147.669 176.011 148.522 175.992 149.351C175.987 149.567 175.982 149.784 175.977 150C175.954 149.553 175.849 149.111 175.663 148.69C175.514 148.37 175.303 148.07 175.168 147.745C174.936 147.178 174.945 146.563 175.192 146C175.327 146.305 175.522 146.591 175.663 146.894Z" fill="black"/>
</g>
<g opacity="0.1">
<path d="M175.907 96.9978L175.891 97C175.744 96.6921 175.442 96.3971 175 96.1301C175.274 96.0891 175.544 96.0454 175.813 96C176.025 96.3269 176.057 96.6662 175.907 96.9978Z" fill="black"/>
</g>
<path d="M13.5 88L12.2674 86.8662C7.89039 82.7685 5.00071 80.1089 5.00071 76.7959C4.97881 75.5223 5.46334 74.294 6.34394 73.3906C7.22455 72.4872 8.42624 71.9857 9.67531 72.0003C11.1521 72.0083 12.5507 72.6779 13.5 73.8314C14.4493 72.6779 15.8479 72.0083 17.3247 72.0003C18.5737 71.9857 19.7754 72.4872 20.656 73.3906C21.5367 74.294 22.0212 75.5223 21.9993 76.7958C21.9993 80.1089 19.1096 82.7685 14.7326 86.8662L13.5 88Z" fill="#FF6584"/>
<path fill-rule="evenodd" clip-rule="evenodd" d="M16.5 85L15.2674 83.8662C10.8904 79.7685 8.00071 77.1089 8.00071 73.7959C7.97881 72.5223 8.46334 71.294 9.34394 70.3906C10.2245 69.4872 11.4262 68.9857 12.6753 69.0003C14.1521 69.0083 15.5507 69.6779 16.5 70.8314C17.4493 69.6779 18.8479 69.0083 20.3247 69.0003C21.5737 68.9857 22.7754 69.4872 23.656 70.3906C24.5367 71.294 25.0212 72.5223 24.9993 73.7958C24.9993 77.1089 22.1096 79.7685 17.7326 83.8662L16.5 85Z" stroke="#3F3D56" stroke-width="2"/>
</svg>
